<svg xmlns="http://www.w3.org/2000/svg" xmlns:xlink="http://www.w3.org/1999/xlink" width="77.807" height="37.265" viewBox="0 0 77.807 37.265">
  <defs>
    <clipPath id="clip-path">
      <path id="Path_311" data-name="Path 311" d="M148.844,210.637H194.59V241.07H148.844Zm0,0" transform="translate(-148.844 -210.637)"/>
    </clipPath>
    <clipPath id="clip-path-2">
      <path id="Path_310" data-name="Path 310" d="M.844.637H46.59V31.07H.844Zm0,0" transform="translate(-0.844 -0.637)"/>
    </clipPath>
  </defs>
  <g id="ps-icon" transform="translate(-716.072 -1406.027)">
    <path id="Path_308" data-name="Path 308" d="M159.358,198.224c-31.879-22.716-59.671-13.633-77.807,1.133a96.921,96.921,0,0,1,27.125-8.921,17.376,17.376,0,0,0,6.434,28.129,89.5,89.5,0,0,1-26.059-5.428c15.541,9.221,37.742,14.4,62.9-2.233a91.578,91.578,0,0,1-24.169,7.066,17.4,17.4,0,0,0,4.715-27.842,93.977,93.977,0,0,1,26.859,8.1" transform="translate(634.521 1221.545)" fill-rule="evenodd"/>
    <g id="Group_66" data-name="Group 66" transform="translate(732.572 1412.44)" clip-path="url(#clip-path)">
      <g id="Group_65" data-name="Group 65" transform="translate(0 0)">
        <g id="Group_64" data-name="Group 64" transform="translate(0 0)" clip-path="url(#clip-path-2)">
          <path id="Path_309" data-name="Path 309" d="M37.122.7a3.383,3.383,0,0,0,1.295,1.241,6.558,6.558,0,0,1,.761.557,2.662,2.662,0,0,1-.446-.028,2.417,2.417,0,0,0-.981.022l-.284.1.039.045c.553.608,1.506.543,2.431.476l.234.358a1.8,1.8,0,0,0-1.281.025h-.182v.13l.01.011a1.856,1.856,0,0,0,1.251.567,1.871,1.871,0,0,1,1.3.62,4.558,4.558,0,0,0-1.919-.249h-.039V4.7l.009.011a2.557,2.557,0,0,0,2.431.634c.021.039.3.559.384.717a3.413,3.413,0,0,0-2.184-.336l-.034,0V5.86l.008.011c.525.651,1.321.756,2.431.709l.587.973v.011c-.191-.07-.379-.147-.577-.228a5.735,5.735,0,0,0-1.879-.526l-.04,0v.131l.007.011a3.319,3.319,0,0,0,2.729,1.095c.017.044.436,1.112.441,1.125V9.31l-.337-.281a4.485,4.485,0,0,0-2.265-1.218L40.977,7.8v.133l0,.01a3.894,3.894,0,0,0,2.726,1.787c.011.044.217.888.22.9v.292l-.345-.322a3.408,3.408,0,0,0-2.034-1.17l-.042,0v.131l0,.01a4.949,4.949,0,0,0,2.527,1.914l.041.019v.9a6.765,6.765,0,0,1-.649-.6,3.294,3.294,0,0,0-1.8-1.13l-.047-.011v.134l0,.009a4.165,4.165,0,0,0,2.5,2.093c0,.049.063,1.106.07,1.216a2.748,2.748,0,0,1-.9-.859,2.526,2.526,0,0,0-1.471-1.118l-.048-.011v.135l0,.008a4.755,4.755,0,0,0,2.2,2.324,1.088,1.088,0,0,1,.092.452,3.547,3.547,0,0,1-.075.61s-.012.066-.018.1h-.019l-.444-.979a1.954,1.954,0,0,0-1.158-1.1l-.006,0H42.3c-.179,0-.291.049-.333.153a.26.26,0,0,0-.018.1c0,.478.986,1.513,1.755,2.275l.068.068c-.008.037-.212,1-.218,1.039l-.1.052-.326-.668a5.547,5.547,0,0,0-1.56-2.24l-.027-.021-.117.119.009.024a15.227,15.227,0,0,0,1.806,3.612l-.29.518-.043.087c-.284-.567-.558-1.067-.821-1.549L41.5,16.144l-.015-.006-.287-.1.011.064a8.158,8.158,0,0,0,1.127,2.775l.372.674a.681.681,0,0,0-.355.513h-.021c-.121-.283-.219-.562-.314-.83a4.059,4.059,0,0,0-1.035-1.845v-.138l-.076-.011a1.5,1.5,0,0,0-.053.408,4.346,4.346,0,0,0,.529,1.7,3.661,3.661,0,0,1,.445,1.355.829.829,0,0,1-.013.155l-.278.566c-.472-.371-.9-2.517-.932-3.178v-.023l-.227-.115v.063a13.212,13.212,0,0,0,.6,4.072,7.041,7.041,0,0,0-.612.621c-.02-.123-.517-3.235-.517-3.235v-.265l-.069.095a2.9,2.9,0,0,0-.247,1.442,9.8,9.8,0,0,0,.24,2.207,1.3,1.3,0,0,1-.344.846,2.942,2.942,0,0,0-.2.277c-.026-.178-.443-3.015-.443-3.015h-.133l-.01.023a4.351,4.351,0,0,0-.213,1.634c0,.4.016.828.032,1.232,0,0,.023.717.024.755l-.881.674h-.015a12.975,12.975,0,0,0,.3-2.81c0-.126,0-.256,0-.39V22.3H37.5l-.006.033c-.081.471-.174.881-.264,1.279a10.167,10.167,0,0,0-.343,2.431c0,.017,0,.034,0,.052l-.815.484c.027-.123.1-.477.1-.477a8.9,8.9,0,0,0,.265-2.067c0-.05,0-.1,0-.153v-.039h-.128l-.012.011a3.939,3.939,0,0,0-.924,2.866c0,.077,0,.151,0,.223l-.941.549a11.374,11.374,0,0,0,.487-1.44V25.3l-.048.013c-.858.218-1.012,1.011-1.174,1.848-.041.208-.083.421-.135.629a36.7,36.7,0,0,1-9.408.9c-2.4-.011-6.354.263-9.837-.441-.187-.1-.31-.463-.454-.89a2.99,2.99,0,0,0-.982-1.653l-.009-.006h-.126v.04a2.966,2.966,0,0,0,.534,1.945l.046.142-.963-.42c-.009-.035-.1-.4-.1-.4a15.757,15.757,0,0,0-.735-2.514l-.008-.018-.373-.094,0,.054a10.117,10.117,0,0,0,.336,1.8c.066.26.127.507.179.759a1.479,1.479,0,0,1-.749-.5,13.221,13.221,0,0,1-.612-2.5c-.09-.465-.167-.865-.214-1.031l-.007-.021-.372-.095v.186a8.153,8.153,0,0,0,.419,2.937l-.8-.478a6.819,6.819,0,0,1-.317-2.487c0-.34.008-.666.013-.954l.01-.5H8.913l-.011.014a3.477,3.477,0,0,0-.429,2.01c0,.344.015.678.029.967,0,0,.009.186.012.246H8.491A1.72,1.72,0,0,1,7.928,23.3c0-.286.025-.595.052-.917.028-.344.057-.693.057-1.041a3.814,3.814,0,0,0-.2-1.316v-.189H7.609l-.3,3.623H7.284L6.7,22.793l.451-2.834V18.526h-.3s-.656,3.34-.676,3.445a1.259,1.259,0,0,1-.536-.632,11.426,11.426,0,0,0,.709-2.275c.1-.437.212-.889.345-1.335l.015-.051h-.38l-.01.023a7.2,7.2,0,0,1-.393.755,3.857,3.857,0,0,0-.672,2.067c0,.009,0,.018,0,.028l-.372-.378A8.217,8.217,0,0,1,5.6,18.317,12.529,12.529,0,0,0,6.244,16.8l0-.006v-.277H5.881l-.011.022a5.784,5.784,0,0,1-.5.806,3.084,3.084,0,0,0-.726,1.86c0,.041,0,.084,0,.127a.821.821,0,0,1-.372-.612,12,12,0,0,0,1.66-3.618l0-.006V14.98H5.578L5.567,15a4.67,4.67,0,0,1-.612.851,3.055,3.055,0,0,0-.9,1.949,1.1,1.1,0,0,1-.382-.919,9.156,9.156,0,0,1,.649-.721,4.114,4.114,0,0,0,1.316-2.136l.011-.056-.055.009A2.552,2.552,0,0,0,3.6,16.214H3.581a.528.528,0,0,1-.1-.313c0-.589.744-1.453,1.364-2.171a7.711,7.711,0,0,0,.787-1l0-.009v-.134L5.6,12.59A2.61,2.61,0,0,0,3.81,13.9a7.04,7.04,0,0,1-.506.633l-.011.012v.017a1.785,1.785,0,0,1-.086-.632c0-.113,0-.231.011-.35l.123-.074a5.481,5.481,0,0,0,2.371-2.166l.011-.026-.19-.193-.025.012a7.826,7.826,0,0,0-2.222,1.646c-.01-.1-.061-.69-.066-.739A5.2,5.2,0,0,0,5.86,9.954L5.9,9.888l-.078,0a2.962,2.962,0,0,0-2.013,1.026c-.134.126-.275.255-.422.377.028-.144.193-.982.2-1.025A4.124,4.124,0,0,0,6.315,8.409L6.321,8.4V8.27l-.042,0A3.583,3.583,0,0,0,4.029,9.39l-.324.276c.041-.147.254-.906.263-.939a9.813,9.813,0,0,1,1.167-.452,5.51,5.51,0,0,0,1.548-.7l.011-.008.1-.3-.058,0a6.827,6.827,0,0,0-2.426.772H4.294c.265-.8.979-.942,1.734-1.1A6.979,6.979,0,0,0,6.9,6.731l.011,0,.343-.437L7.2,6.271a2.969,2.969,0,0,0-2.011.105l.28-.342c.153-.042,2.018-.553,2.187-.614l.011,0,.184-.281-.042-.019a2.964,2.964,0,0,0-1.861.106,2.692,2.692,0,0,1,1.688-.7L8.2,4.417l.008-.011.235-.32V3.963l-.032,0A4.659,4.659,0,0,0,7,3.867a4.3,4.3,0,0,1,1.69-.476c.284-.044.531-.081.7-.127l.016,0,.1-.2L9.484,3.04a1.755,1.755,0,0,0-1.636-.052,4.7,4.7,0,0,1,.914-.737A3.645,3.645,0,0,0,9.947,1.164l.019-.032-.03-.021c-.714-.5-1.655.565-2.16,1.137,0,0-.048.055-.094.1V1.318l-.053.021c-.339.137-.45.574-.568,1.036A2.346,2.346,0,0,1,6.54,3.528c-.012-.128-.147-1.575-.147-1.575H6.264l-.011.014a2.72,2.72,0,0,0-.36,1.4,2.089,2.089,0,0,1-.461,1.453,1.919,1.919,0,0,0,.032-.329A4.477,4.477,0,0,0,5.29,3.44l-.111-.484-.031,0H4.966l-.008.031A7.127,7.127,0,0,0,4.782,4.6a9.119,9.119,0,0,0,.1,1.312l-.215.364-.1.05L4.118,4.5h-.3v.069c0,.516.044.972.086,1.414.037.39.072.749.072,1.1a4.057,4.057,0,0,1-.079.828l-.056.056H3.813C3.7,7.649,3.6,7.309,3.5,6.979s-.189-.647-.287-.916l0-.011-.45-.366v.082a8.721,8.721,0,0,0,.282,1.946,6.831,6.831,0,0,1,.231,1.553,3.721,3.721,0,0,1-.05.6,2.385,2.385,0,0,1-.613-1.289,3.068,3.068,0,0,0-.459-1.13L2.04,7.214,2.009,7.3a2.422,2.422,0,0,0-.162.864,4.238,4.238,0,0,0,.463,1.68,4.224,4.224,0,0,1,.461,1.671c0,.051,0,.1-.006.153H2.751l-.094-.212A5.821,5.821,0,0,0,1.235,9.207L1.21,9.186,1.093,9.3l.008.024c.219.631.432,1.151.637,1.654a18.03,18.03,0,0,1,.944,2.783l-.092.046-.151-.266a3.9,3.9,0,0,0-1.282-1.566l-.078-.047.021.09a6.061,6.061,0,0,0,1.588,3.089v.509l-.109.112c-.112-.135-.218-.281-.322-.423A2.917,2.917,0,0,0,1.229,14.29l-.15-.076L.865,14.1l.007.072a2.853,2.853,0,0,0,1.082,1.941,2.91,2.91,0,0,1,1.027,1.638H2.966a4.552,4.552,0,0,1-.722-.692,3.1,3.1,0,0,0-1.322-1l-.079-.027.031.079a4.071,4.071,0,0,0,1.372,1.678,3.738,3.738,0,0,1,1.2,1.4V19.2A3.314,3.314,0,0,1,2.4,18.46,3.186,3.186,0,0,0,1.071,17.6l-.048-.013v.137l0,.009a3.877,3.877,0,0,0,1.663,1.682,5.893,5.893,0,0,1,1.213.941c0,.019.045.184.056.224A7.733,7.733,0,0,1,2.7,19.923a7.854,7.854,0,0,0-1.547-.779l-.032-.011-.1.2.01.018a3.1,3.1,0,0,0,2.1,1.454c.3.1.606.2.945.336a1.856,1.856,0,0,1,.624.9,5.948,5.948,0,0,1-1.333-.637,4.709,4.709,0,0,0-2.15-.8L1.137,20.6l.044.067a5.9,5.9,0,0,0,2.612,1.614c.68.278,1.268.518,1.4.772,0,0,.1.135.166.227-.709-.17-1.44-.395-2.212-.634L1.674,22.2l.033.078c.489,1.153,2.362,1.853,4.181,1.567.025.034.633.839.665.88A10.681,10.681,0,0,0,2.726,24H2.687v.128l.008.011C3.519,25.3,5.267,25.8,7.257,25.467l.438.3.318.389L7.084,26.1a15.283,15.283,0,0,0-2.848-.016l-.021,0-.1.206.033.018a4.538,4.538,0,0,0,3.052.7L8.622,26.7l1.49.911.042.086-.131,0a14.47,14.47,0,0,0-3.9.239l-.013,0-.185.282.042.018a6.449,6.449,0,0,0,3.688.076c.329-.057.639-.11.94-.149l1.78.529V28.7l-3.457.235L8.98,29c.686.66,1.92.411,3.009.189a6.1,6.1,0,0,1,1.281-.248,39.047,39.047,0,0,0,7.3.605c-.1.4-1.73.879-2.151.957,1.906,1.084,4.875.4,5.44-.29a9.456,9.456,0,0,0,5.769,0s-1.747-.649-2-.734a48.032,48.032,0,0,0,7.358-.878c.731.087,3.354.248,3.9-.146,0,0-3.358-.058-3.429-.06V28.38l1.328-.6,1.35.306a5.92,5.92,0,0,0,3.2-.233l.012,0,.178-.271-.026-.023c-.657-.592-2.443-.464-3.845-.247V27.22L39.2,26.24a5.705,5.705,0,0,0,4.171-.392l.013-.006.1-.208-.041-.014a6.315,6.315,0,0,0-2.876-.042c-.267.036-.54.07-.808.1.422-.567,1.1-.583,1.877-.6a5.053,5.053,0,0,0,1.656-.228,3.632,3.632,0,0,0,1.1-.736c.144-.125.279-.241.422-.35l.01-.007.087-.266-.1-.106H44.8a12.584,12.584,0,0,0-3.711.848h-.031v-.023a3.535,3.535,0,0,1,2.2-.99,3.308,3.308,0,0,0,2.334-1.156l.237-.242v-.134l-.04,0a8.333,8.333,0,0,0-3.547,1.07c.061-.084.38-.517.395-.535l1.885-.615,1.756-1.322.1-.3-.057,0a6.344,6.344,0,0,0-3.416,1.542h0c.035-.084.339-.829.351-.856a11.475,11.475,0,0,1,1.116-.441A3.2,3.2,0,0,0,46.5,18.661l0-.009v-.131l-.043.006a4.955,4.955,0,0,0-2.477,1.187l-.4.291c.048-.145.173-.53.183-.558a3.737,3.737,0,0,0,2.654-2.329l.018-.039-.285-.1-.013.008a7.405,7.405,0,0,0-1.536,1.175c-.16.147-.328.3-.5.442a4.012,4.012,0,0,1,1.158-1.512A6.065,6.065,0,0,0,46.573,15.5l.017-.036-.036-.017c-.492-.23-1.121.547-1.624,1.17a6.364,6.364,0,0,1-.437.508,3.207,3.207,0,0,1,.966-1.709A3.677,3.677,0,0,0,46.5,13.641l0-.021-.188-.192-.026.016a3.479,3.479,0,0,0-1.448,1.7l-.078.04a4.511,4.511,0,0,1,.693-1.961,7,7,0,0,0,.739-1.742v-.11l-.19-.1-.018.011a3.768,3.768,0,0,0-1.223,2h-.006a6.871,6.871,0,0,1,.766-2.982,12.865,12.865,0,0,0,.593-1.515l0-.006v-.29l-.05.015c-.772.238-1.322,1.6-1.459,2.465h-.082c0-.089-.01-.176-.01-.26a4.882,4.882,0,0,1,.341-1.652A6.371,6.371,0,0,0,45.29,6.8V6.747l-.2-.1-.019.019a4.679,4.679,0,0,0-.916,2.687h-.021a1.5,1.5,0,0,1-.263-.878,4.983,4.983,0,0,1,.343-1.5l.163-.5a3.254,3.254,0,0,0,.11-.762.946.946,0,0,0-.114-.5l-.016-.026-.028.01c-.692.22-.936,1.246-.936,2.169v.063h-.081a1.888,1.888,0,0,1-.053-.469,7.406,7.406,0,0,1,.077-.878A8.346,8.346,0,0,0,43.43,5a3.007,3.007,0,0,0-.183-1.091V3.725h-.131l-.011.013a3.283,3.283,0,0,0-.47,1.945c0,.074,0,.146.006.215l-.094.048a3.352,3.352,0,0,1-.128-1.2V4.492c0-.837-.024-1.742-.555-2l-.047-.022-.06.435a7.111,7.111,0,0,0-.1,1.009,2.317,2.317,0,0,0,.071.6l-.094.048a6.84,6.84,0,0,1-.669-2.571l-.07-.5H40.77l-.012.014a1.526,1.526,0,0,0-.24.95,5.094,5.094,0,0,0,.073.809h-.016a1.479,1.479,0,0,1-.517-1.016,2.842,2.842,0,0,0-.3-.892.827.827,0,0,0-.288-.3L39.382.986s.065,1,.075,1.145a6.4,6.4,0,0,1-.488-.478,2.517,2.517,0,0,0-1.81-1.01l-.07-.006" transform="translate(-0.844 -0.637)" fill-rule="evenodd"/>
        </g>
      </g>
    </g>
    <path id="Path_312" data-name="Path 312" d="M219.668,208.373c-1.515.4-2.163,1.922-2.56,3.589.921-.847,1.757-1.874,3.614-1.613a5.357,5.357,0,0,0-1.885,3.26c.945-.8,1.812-2,3.008-2.116-.05,3.417-.1,7.047-.148,10.464-.015.258.079.345.306.378l.065.008c.291-.007.573.052.649-.085.414-.7.018-7.546.018-7.546v-3.289a5.143,5.143,0,0,1,2.892,1.9,3.638,3.638,0,0,0-1.833-2.833c.8-.709,2.733-.032,3.278.835.331-1.192-1.22-2.685-2.452-2.9.421-1.009,2.359-1.089,3.025-.961a3.822,3.822,0,0,0-3.539-1.238,7.726,7.726,0,0,1,2.224-1.584c-1.508-.114-2.524-.185-3.477.876-.375-.448-.273-1.2-.625-1.628a1.9,1.9,0,0,1-.226.507,2.952,2.952,0,0,0-.509,1.12,3.52,3.52,0,0,0-3.469-.551,3.976,3.976,0,0,1,2.584,1.85,2.856,2.856,0,0,0-4.249,1.3,3.689,3.689,0,0,1,3.309.262" transform="translate(532.767 1206.898)" fill="#d9b41d" fill-rule="evenodd"/>
    <path id="Path_313" data-name="Path 313" d="M197.194,269.605c-.716.591-1.417,1.211-2.134,1.8a1.757,1.757,0,0,1-.262-1.126c-.044-.509-.477-.411-.519,0-.139.782.148,1.079.3,1.7-.593.539-1.315,1.174-1.909,1.714-.668-.965-1.622-.53-1.3.523.814,2.686,3.16-.547,4.1-1.14a2.285,2.285,0,0,1,.371,1.061c.066.355.329.315.445,0a2.187,2.187,0,0,0-.3-1.541c.671-.582,1.4-1.261,2.084-1.862l.21-.184h.222c.692.566,1.579,1.456,2.272,2.021-.052.316-.649,1.364.047,1.753.187.105.218-.322.28-1.189,1.169-.035,2.159,2.254,3.337,1.927a2.388,2.388,0,0,0,1.161-1.3c.085-.279-.354-.933-.79-.783-.322.1-.42.435-.741.536-.667-.539-1.24-1.031-1.909-1.571.27-.282.856-1.907.124-1.994-.347-.04-.089,1.274-.494,1.525-.716-.54-1.516-1.385-2.232-1.925a19.818,19.818,0,0,1,12.611-5.784c-7.281-1.427-12.554,3.6-13.706,4.893-.13-.111-.26-.222-.39-.331-3.885-3.269-8.207-5.693-13.417-4.323,2.344.3,7.76.586,12.542,5.6" transform="translate(556.699 1161.889)" fill="#d9b41d" fill-rule="evenodd"/>
  </g>
</svg>
