<svg xmlns="http://www.w3.org/2000/svg" width="138" height="92.325" viewBox="0 0 138 92.325">
  <g id="sv-logo" transform="translate(-118.14 -53.71)">
    <g id="Group_61" data-name="Group 61" transform="translate(118.144 53.71)">
      <rect id="Rectangle_166" data-name="Rectangle 166" width="1.553" height="1.549" transform="translate(81.293 1.675)" fill="#fcfcfc"/>
      <rect id="Rectangle_167" data-name="Rectangle 167" width="1.553" height="1.549" transform="translate(113.565 20.933)" fill="#fcfcfc"/>
      <path id="Path_223" data-name="Path 223" d="M471,81.09a2.264,2.264,0,0,0,.923-.786,3.323,3.323,0,0,0,.493-1.238,8.429,8.429,0,0,0,.145-1.634V66.59h-1.553V77.433a7.847,7.847,0,0,1-.067,1.112,2.033,2.033,0,0,1-.233.737,1,1,0,0,1-.445.408,1.774,1.774,0,0,1-.726.126,3.4,3.4,0,0,1-.367-.019,2.76,2.76,0,0,1-.426-.1l-.408,1.49a4.691,4.691,0,0,0,1.26.174A3.316,3.316,0,0,0,471,81.09Z" transform="translate(-338.574 -61.817)" fill="#fcfcfc"/>
      <path id="Path_224" data-name="Path 224" d="M455.364,55.737h-2.131v-.359a.718.718,0,0,1,.126-.456.623.623,0,0,1,.478-.133H454.9V53.71h-1.093a1.879,1.879,0,0,0-1.367.463,2.024,2.024,0,0,0-.474,1.49v1.264h3.4V55.737Z" transform="translate(-328.27 -53.71)" fill="#fcfcfc"/>
      <rect id="Rectangle_168" data-name="Rectangle 168" width="1.553" height="1.549" transform="translate(110.46 20.933)" fill="#fcfcfc"/>
      <rect id="Rectangle_169" data-name="Rectangle 169" width="1.553" height="1.549" transform="translate(84.398 1.675)" fill="#fcfcfc"/>
      <path id="Path_225" data-name="Path 225" d="M439.018,75.873a6.152,6.152,0,0,0,2.045.93,9.825,9.825,0,0,0,2.464.3h.411l.523-1.093v1.538a2.043,2.043,0,0,1-.7,1.742,3.219,3.219,0,0,1-1.96.522,5.485,5.485,0,0,1-1.29-.137,7.4,7.4,0,0,1-1.308-.463l-.485,1.49a13.715,13.715,0,0,0,1.582.493,5.877,5.877,0,0,0,1.386.163,4.4,4.4,0,0,0,3.3-1.075,4.017,4.017,0,0,0,1.026-2.894V66.59h-2.483a8.044,8.044,0,0,0-2.62.408,6.316,6.316,0,0,0-2.027,1.112,4.9,4.9,0,0,0-1.775,3.806,4.981,4.981,0,0,0,.515,2.353A4.48,4.48,0,0,0,439.018,75.873Zm0-5.488a3.8,3.8,0,0,1,.949-1.19,4.39,4.39,0,0,1,1.349-.763,4.6,4.6,0,0,1,1.523-.267v0h2.509l-.886.441v6.955h-1.571a5.355,5.355,0,0,1-1.638-.245,4.076,4.076,0,0,1-1.349-.708,3.259,3.259,0,0,1-.912-1.141,3.512,3.512,0,0,1-.33-1.549A3.222,3.222,0,0,1,439.018,70.385Z" transform="translate(-318.916 -61.817)" fill="#fcfcfc"/>
      <path id="Path_226" data-name="Path 226" d="M326.484,81.146h3.224v-1.16a1.649,1.649,0,0,0,.1.159,2.292,2.292,0,0,0,.923.786,3.252,3.252,0,0,0,1.4.271h28.292V66.59h-1.553V79.656H332.187a1.762,1.762,0,0,1-.726-.126.964.964,0,0,1-.445-.408,2.186,2.186,0,0,1-.233-.737,7.838,7.838,0,0,1-.067-1.112V66.59h-4.195a7.136,7.136,0,0,0-7.211,7.278v.041A7.074,7.074,0,0,0,326.484,81.146Zm-5.518-7.319a5.533,5.533,0,0,1,5.518-5.77h3.631l-.952.474v8.741a8.378,8.378,0,0,0,.145,1.634,3.6,3.6,0,0,0,.241.771h-3.028a5.6,5.6,0,0,1-5.558-5.81v-.041Z" transform="translate(-244.768 -61.817)" fill="#fcfcfc"/>
      <path id="Path_227" data-name="Path 227" d="M280.167,77.268l.678,1.786L270.988,66.54H269.45V81.084h1.6V70.123L270.139,68l10.32,13.081h1.312V66.54h-1.6Z" transform="translate(-213.384 -61.786)" fill="#fcfcfc"/>
      <path id="Path_228" data-name="Path 228" d="M329.075,144.074l8.945-8.527V129.7H314.112v6.659H326.37l4.547-2.92-11.35,11.395,1.215,4.943h3.235c4.347,0,6.926,1.616,6.926,4.491v.1c0,2.624-2.071,4.287-5,4.287-3.587,0-6.114-1.512-8.541-4.239l-5.358,5.1c3.031,3.583,7.43,6.1,13.8,6.1,7.885,0,12.736-4.9,12.736-11.554v-.1C338.579,147.405,333.877,144.882,329.075,144.074Z" transform="translate(-240.192 -101.541)" fill="#fcfcfc"/>
      <path id="Path_229" data-name="Path 229" d="M229.532,65.87a7.375,7.375,0,0,0-7.452,7.522v.041a7.432,7.432,0,1,0,14.863-.041v-.041A7.31,7.31,0,0,0,229.532,65.87Zm5.7,7.563a5.718,5.718,0,0,1-5.7,5.962,5.785,5.785,0,0,1-5.744-6v-.041a5.72,5.72,0,0,1,5.7-5.962,5.785,5.785,0,0,1,5.744,6Z" transform="translate(-183.568 -61.364)" fill="#fcfcfc"/>
      <path id="Path_230" data-name="Path 230" d="M407.924,128.06c-10.917,0-18.854,8.223-18.854,18.261v.1c0,10.038,7.834,18.161,18.75,18.161s18.854-8.223,18.854-18.261v-.1C426.678,136.183,418.841,128.06,407.924,128.06Zm10.617,18.361c0,6.055-4.347,11-10.617,11s-10.717-5.043-10.717-11.1v-.1c0-6.055,4.347-11,10.613-11s10.717,5.043,10.717,11.1v.1Z" transform="translate(-288.678 -100.509)" fill="#fcfcfc"/>
      <rect id="Rectangle_170" data-name="Rectangle 170" width="1.645" height="14.541" transform="translate(34.028 4.754)" fill="#fcfcfc"/>
      <path id="Path_231" data-name="Path 231" d="M126.319,160.113l1.5-1.156L135.553,153c6.266-4.843,9.3-7.767,9.3-13.67v-.1c0-6.611-4.851-10.9-12.18-10.9-6.318,0-9.7,2.572-13.192,7.315l5.458,4.387c2.627-3.228,4.5-4.739,7.23-4.739,2.779,0,4.751,1.616,4.751,4.591,0,2.924-1.719,4.843-6.114,8.475l-11.776,9.635v6.155h26.184v-6.711H131.722Z" transform="translate(-118.704 -100.679)" fill="#fcfcfc"/>
      <path id="Path_232" data-name="Path 232" d="M125.872,81.188l6.262-14.648h-1.768l-4.951,11.921.156,1.6-.408-.993-4.287-10.361-.9-2.168H118.15l6.266,14.648Z" transform="translate(-118.15 -61.786)" fill="#fcfcfc"/>
      <rect id="Rectangle_171" data-name="Rectangle 171" width="1.645" height="14.541" transform="translate(16.219 4.754)" fill="#fcfcfc"/>
      <path id="Path_233" data-name="Path 233" d="M179.361,72.675c-3.205-.686-3.954-1.453-3.954-2.824V69.81c0-1.308,1.208-2.346,3.1-2.346a6.414,6.414,0,0,1,4.206,1.579l.956-1.267a7.6,7.6,0,0,0-5.121-1.786c-2.768,0-4.788,1.682-4.788,3.969V70c0,2.39,1.542,3.468,4.891,4.2,3.061.645,3.787,1.412,3.787,2.764V77c0,1.434-1.29,2.472-3.246,2.472a6.943,6.943,0,0,1-5-2.057l-1.019,1.2a8.526,8.526,0,0,0,5.951,2.327c2.894,0,4.973-1.619,4.973-4.113V76.8C184.1,74.568,182.607,73.383,179.361,72.675Z" transform="translate(-152.788 -61.44)" fill="#fcfcfc"/>
    </g>
    <path id="Path_234" data-name="Path 234" d="M243.819,121.79l1.793,1.716-1.719,1.79L242.1,123.58Z" transform="translate(-78.026 -42.852)" fill="#28316f"/>
    <path id="Path_235" data-name="Path 235" d="M257.81,123.58l1.79,1.716,1.719-1.79-1.79-1.716Z" transform="translate(-87.914 -42.852)" fill="#b4b1b3"/>
    <path id="Path_236" data-name="Path 236" d="M251,130.333l1.4,1.338,1.338-1.393-1.4-1.338Z" transform="translate(-83.628 -47.353)" fill="#d5d505"/>
    <path id="Path_237" data-name="Path 237" d="M264.81,132.4l1.393,1.338,1.338-1.393-1.393-1.334Z" transform="translate(-92.32 -48.656)" fill="#75b12f"/>
    <path id="Path_238" data-name="Path 238" d="M244.84,136.08l1.4,1.338,1.338-1.393-1.393-1.334Z" transform="translate(-79.75 -50.972)" fill="#d5d505"/>
    <path id="Path_239" data-name="Path 239" d="M257.48,136.513l1.393,1.338,1.338-1.393-1.393-1.338Z" transform="translate(-87.706 -51.243)" fill="#29b0ba"/>
    <path id="Path_240" data-name="Path 240" d="M252.54,141.538l.978.941.945-.978-.982-.941Z" transform="translate(-84.597 -54.667)" fill="#75b12f"/>
    <path id="Path_241" data-name="Path 241" d="M262.53,143.532l.978.938.945-.978-.982-.941Z" transform="translate(-90.885 -55.92)" fill="#5aac4c"/>
    <rect id="Rectangle_172" data-name="Rectangle 172" width="3.094" height="3.09" transform="translate(179.728 80.16) rotate(-10.387)" fill="#2983c6"/>
    <rect id="Rectangle_173" data-name="Rectangle 173" width="2.483" height="2.479" transform="translate(175.743 81.43) rotate(-10.376)" fill="#213466"/>
    <rect id="Rectangle_174" data-name="Rectangle 174" width="2.483" height="2.479" transform="translate(180.477 84.833) rotate(-10.393)" fill="#29b0ba"/>
    <rect id="Rectangle_175" data-name="Rectangle 175" width="1.934" height="1.931" transform="translate(177.101 85.185) rotate(-10.382)" fill="#d5d505"/>
    <rect id="Rectangle_176" data-name="Rectangle 176" width="1.934" height="1.931" transform="translate(180.803 88.791) rotate(-10.382)" fill="#fcfcfc"/>
    <rect id="Rectangle_177" data-name="Rectangle 177" width="1.934" height="1.931" transform="translate(174.252 85.96) rotate(-10.382)" fill="#29b0ba"/>
    <rect id="Rectangle_178" data-name="Rectangle 178" width="1.934" height="1.931" transform="translate(177.705 88.446) rotate(-10.382)" fill="#75b12f"/>
    <rect id="Rectangle_179" data-name="Rectangle 179" width="1.36" height="1.356" transform="translate(175.283 88.68) rotate(-10.387)" fill="#fcfcfc"/>
    <rect id="Rectangle_180" data-name="Rectangle 180" width="1.36" height="1.356" transform="translate(177.859 91.44) rotate(-10.358)" fill="#5aac4c"/>
    <path id="Path_242" data-name="Path 242" d="M306.52,151.95l-1.33,2.79,2.794,1.327,1.33-2.787Z" transform="translate(-117.737 -61.836)" fill="#28316f"/>
    <path id="Path_243" data-name="Path 243" d="M296.257,148.47l-1.067,2.238,2.242,1.067,1.067-2.238Z" transform="translate(-111.443 -59.646)" fill="#29b0ba"/>
    <path id="Path_244" data-name="Path 244" d="M301.207,163.35l-1.067,2.238,2.246,1.063,1.067-2.234Z" transform="translate(-114.558 -69.012)" fill="#75b12f"/>
    <path id="Path_245" data-name="Path 245" d="M293.68,158.82l-.83,1.745,1.745.826.834-1.742Z" transform="translate(-109.97 -66.161)" fill="#d5d505"/>
    <path id="Path_246" data-name="Path 246" d="M296.074,172.55l-.834,1.742,1.745.83.834-1.745Z" transform="translate(-111.474 -74.803)" fill="#d5d505"/>
    <path id="Path_247" data-name="Path 247" d="M286.22,156.02l-.83,1.745,1.745.826.834-1.742Z" transform="translate(-105.274 -64.398)" fill="#2983c6"/>
    <path id="Path_248" data-name="Path 248" d="M289.844,166.9l-.834,1.745,1.749.826.83-1.742Z" transform="translate(-107.553 -71.246)" fill="#fcfcfc"/>
    <path id="Path_249" data-name="Path 249" d="M284.6,163.59l-.586,1.227,1.23.582.582-1.227Z" transform="translate(-104.405 -69.163)" fill="#75b12f"/>
    <rect id="Rectangle_181" data-name="Rectangle 181" width="1.356" height="1.36" transform="matrix(0.43, -0.903, 0.903, 0.43, 180.077, 99.385)" fill="#29b0ba"/>
    <path id="Path_250" data-name="Path 250" d="M308.233,188.01l-2.713,1.482,1.49,2.709,2.712-1.482Z" transform="translate(-117.945 -84.534)" fill="#2983c6"/>
    <path id="Path_251" data-name="Path 251" d="M302.5,178.93l-2.179,1.193,1.2,2.171,2.175-1.193Z" transform="translate(-114.672 -78.819)" fill="#29b0ba"/>
    <path id="Path_252" data-name="Path 252" d="M297.8,193.89l-2.175,1.193,1.193,2.171,2.179-1.193Z" transform="translate(-111.713 -88.235)" fill="#29b0ba"/>
    <path id="Path_253" data-name="Path 253" d="M294.837,185.58l-1.7.93.93,1.69,1.7-.926Z" transform="translate(-110.152 -83.004)" fill="#28316f"/>
    <path id="Path_254" data-name="Path 254" d="M288.733,198.11l-1.693.93.93,1.69,1.693-.926Z" transform="translate(-106.313 -90.891)" fill="#5aac4c"/>
    <path id="Path_255" data-name="Path 255" d="M290.433,178.96l-1.693.926.926,1.693,1.7-.93Z" transform="translate(-107.383 -78.838)" fill="#213466"/>
    <path id="Path_256" data-name="Path 256" d="M286.987,189.9l-1.7.926.93,1.693,1.7-.93Z" transform="translate(-105.211 -85.724)" fill="#d5d505"/>
    <path id="Path_257" data-name="Path 257" d="M285.193,183.9l-1.193.652.656,1.189,1.19-.652Z" transform="translate(-104.399 -81.947)" fill="#fcfcfc"/>
    <path id="Path_258" data-name="Path 258" d="M280.293,192.82l-1.193.652.656,1.189,1.193-.652Z" transform="translate(-101.315 -87.562)" fill="#29b0ba"/>
    <rect id="Rectangle_182" data-name="Rectangle 182" width="3.09" height="3.094" transform="matrix(0.123, -0.993, 0.993, 0.123, 180.23, 117.859)" fill="#75b12f"/>
    <rect id="Rectangle_183" data-name="Rectangle 183" width="2.479" height="2.483" transform="translate(180.886 113.18) rotate(-82.935)" fill="#213466"/>
    <rect id="Rectangle_184" data-name="Rectangle 184" width="2.479" height="2.483" transform="translate(176.225 116.66) rotate(-82.935)" fill="#29b0ba"/>
    <rect id="Rectangle_185" data-name="Rectangle 185" width="1.931" height="1.934" transform="translate(177.501 112.881) rotate(-82.952)" fill="#75b12f"/>
    <rect id="Rectangle_186" data-name="Rectangle 186" width="1.931" height="1.934" transform="translate(172.945 115.323) rotate(-82.952)" fill="#fcfcfc"/>
    <rect id="Rectangle_187" data-name="Rectangle 187" width="1.931" height="1.934" transform="translate(177.62 109.928) rotate(-82.935)" fill="#fcfcfc"/>
    <rect id="Rectangle_188" data-name="Rectangle 188" width="1.931" height="1.934" transform="translate(174.21 112.467) rotate(-82.935)" fill="#75b12f"/>
    <rect id="Rectangle_189" data-name="Rectangle 189" width="1.356" height="1.36" transform="matrix(0.123, -0.992, 0.992, 0.123, 175.352, 109.597)" fill="#fcfcfc"/>
    <rect id="Rectangle_190" data-name="Rectangle 190" width="1.356" height="1.36" transform="translate(171.938 111.219) rotate(-82.952)" fill="#fcfcfc"/>
    <path id="Path_259" data-name="Path 259" d="M254.576,231.261l-2.268-2.1-2.108,2.264,2.268,2.1Z" transform="translate(-83.124 -110.435)" fill="#d5d505"/>
    <path id="Path_260" data-name="Path 260" d="M253.446,114.481l-2.268-2.1-2.108,2.264,2.272,2.1Z" transform="translate(-82.413 -36.929)" fill="#75b12f"/>
    <path id="Path_261" data-name="Path 261" d="M262.579,222.816l-1.819-1.686-1.69,1.816,1.819,1.686Z" transform="translate(-88.707 -105.381)" fill="#29b0ba"/>
    <path id="Path_262" data-name="Path 262" d="M246.873,223.076l-1.823-1.686-1.69,1.816,1.823,1.686Z" transform="translate(-78.819 -105.545)" fill="#75b12f"/>
    <path id="Path_263" data-name="Path 263" d="M254.9,217.516l-1.416-1.316-1.315,1.416,1.416,1.312Z" transform="translate(-84.364 -102.278)" fill="#2983c6"/>
    <path id="Path_264" data-name="Path 264" d="M241.061,215.682l-1.416-1.312-1.315,1.412,1.419,1.316Z" transform="translate(-75.653 -101.126)" fill="#d5d505"/>
    <path id="Path_265" data-name="Path 265" d="M259.811,211.252,258.4,209.94l-1.316,1.412,1.416,1.315Z" transform="translate(-87.455 -98.338)" fill="#d5d505"/>
    <path id="Path_266" data-name="Path 266" d="M248.321,211.442l-1.416-1.312-1.316,1.412,1.416,1.315Z" transform="translate(-80.222 -98.457)" fill="#fcfcfc"/>
    <path id="Path_267" data-name="Path 267" d="M254.563,207.7l-1-.926-.926,1,1,.923Z" transform="translate(-84.66 -96.342)" fill="#213466"/>
    <path id="Path_268" data-name="Path 268" d="M244.543,205.873l-1-.923-.926.993,1,.923Z" transform="translate(-78.353 -95.197)" fill="#fcfcfc"/>
    <rect id="Rectangle_191" data-name="Rectangle 191" width="3.094" height="3.09" transform="translate(154.589 115.838) rotate(-11.332)" fill="#2983c6"/>
    <rect id="Rectangle_192" data-name="Rectangle 192" width="2.483" height="2.479" transform="matrix(0.98, -0.196, 0.196, 0.98, 159.258, 114.974)" fill="#29b0ba"/>
    <rect id="Rectangle_193" data-name="Rectangle 193" width="2.483" height="2.479" transform="matrix(0.98, -0.197, 0.197, 0.98, 154.494, 111.661)" fill="#75b12f"/>
    <rect id="Rectangle_194" data-name="Rectangle 194" width="1.934" height="1.931" transform="matrix(0.98, -0.196, 0.196, 0.98, 158.484, 111.677)" fill="#d5d505"/>
    <rect id="Rectangle_195" data-name="Rectangle 195" width="1.934" height="1.931" transform="matrix(0.98, -0.196, 0.196, 0.98, 161.322, 110.854)" fill="#28316f"/>
    <rect id="Rectangle_196" data-name="Rectangle 196" width="1.934" height="1.931" transform="matrix(0.98, -0.196, 0.196, 0.98, 157.831, 108.426)" fill="#2983c6"/>
    <rect id="Rectangle_197" data-name="Rectangle 197" width="1.36" height="1.356" transform="translate(160.931 108.62) rotate(-11.314)" fill="#75b12f"/>
    <rect id="Rectangle_198" data-name="Rectangle 198" width="1.36" height="1.356" transform="matrix(0.98, -0.197, 0.197, 0.98, 158.322, 105.896)" fill="#fcfcfc"/>
    <path id="Path_269" data-name="Path 269" d="M196.666,194.5l1.286-2.813-2.82-1.278-1.282,2.809Z" transform="translate(-47.655 -86.045)" fill="#29b0ba"/>
    <path id="Path_270" data-name="Path 270" d="M208.38,199.173l1.026-2.253-2.257-1.03-1.03,2.257Z" transform="translate(-55.378 -89.494)" fill="#d5d505"/>
    <path id="Path_271" data-name="Path 271" d="M203.18,184.383l1.03-2.257-2.26-1.026-1.03,2.257Z" transform="translate(-52.105 -80.185)" fill="#2983c6"/>
    <rect id="Rectangle_199" data-name="Rectangle 199" width="1.931" height="1.934" transform="translate(152.275 105.022) rotate(-65.488)" fill="#29b0ba"/>
    <path id="Path_272" data-name="Path 272" d="M218.39,201.867l.8-1.756-1.76-.8-.8,1.756Z" transform="translate(-61.994 -91.647)" fill="#fcfcfc"/>
    <rect id="Rectangle_200" data-name="Rectangle 200" width="1.931" height="1.934" transform="matrix(0.415, -0.91, 0.91, 0.415, 151.316, 99.954)" fill="#28316f"/>
    <rect id="Rectangle_201" data-name="Rectangle 201" width="1.931" height="1.934" transform="matrix(0.415, -0.91, 0.91, 0.415, 155.07, 106.019)" fill="#5aac4c"/>
    <rect id="Rectangle_202" data-name="Rectangle 202" width="1.931" height="1.934" transform="translate(153.651 102.017) rotate(-65.455)" fill="#d5d505"/>
    <path id="Path_273" data-name="Path 273" d="M222.338,186.377l.567-1.234-1.238-.563-.567,1.238Z" transform="translate(-64.807 -82.375)" fill="#213466"/>
    <path id="Path_274" data-name="Path 274" d="M220.918,176.311l.563-1.238-1.238-.563-.563,1.238Z" transform="translate(-63.913 -76.036)" fill="#75b12f"/>
    <path id="Path_275" data-name="Path 275" d="M194.184,158.313l2.69-1.53L195.34,154.1l-2.69,1.53Z" transform="translate(-46.9 -63.19)" fill="#29b0ba"/>
    <path id="Path_276" data-name="Path 276" d="M201.49,168.689l2.16-1.227-1.234-2.153-2.157,1.227Z" transform="translate(-51.69 -70.246)" fill="#75b12f"/>
    <path id="Path_277" data-name="Path 277" d="M205.95,153.66l2.157-1.227-1.23-2.153-2.157,1.227Z" transform="translate(-54.497 -60.785)" fill="#213466"/>
    <path id="Path_278" data-name="Path 278" d="M210.326,163.171l1.679-.956-.956-1.675-1.679.956Z" transform="translate(-57.424 -67.243)" fill="#2983c6"/>
    <path id="Path_279" data-name="Path 279" d="M216.22,150.545l1.679-.956-.956-1.679-1.682.956Z" transform="translate(-61.131 -59.293)" fill="#75b12f"/>
    <path id="Path_280" data-name="Path 280" d="M214.84,169.721l1.679-.956-.956-1.675-1.682.956Z" transform="translate(-60.263 -71.366)" fill="#29b0ba"/>
    <path id="Path_281" data-name="Path 281" d="M218.1,158.725l1.679-.956-.956-1.679-1.682.96Z" transform="translate(-62.315 -64.442)" fill="#d5d505"/>
    <path id="Path_282" data-name="Path 282" d="M221.334,166.009l1.182-.671-.674-1.178-1.182.671Z" transform="translate(-64.53 -69.522)" fill="#fcfcfc"/>
    <path id="Path_283" data-name="Path 283" d="M226.084,157.013l1.182-.674-.674-1.178-1.182.671Z" transform="translate(-67.52 -63.857)" fill="#75b12f"/>
    <rect id="Rectangle_203" data-name="Rectangle 203" width="3.09" height="3.094" transform="matrix(0.106, -0.994, 0.994, 0.106, 153.696, 83.309)" fill="#75b12f"/>
    <rect id="Rectangle_204" data-name="Rectangle 204" width="2.479" height="2.483" transform="translate(153.79 87.468) rotate(-83.892)" fill="#fcfcfc"/>
    <rect id="Rectangle_205" data-name="Rectangle 205" width="2.479" height="2.483" transform="translate(158.398 83.917) rotate(-83.892)" fill="#29b0ba"/>
    <rect id="Rectangle_206" data-name="Rectangle 206" width="1.931" height="1.934" transform="translate(157.784 87.241) rotate(-83.886)" fill="#d5d505"/>
    <rect id="Rectangle_207" data-name="Rectangle 207" width="1.931" height="1.934" transform="translate(162.303 84.707) rotate(-83.91)" fill="#2983c6"/>
    <rect id="Rectangle_208" data-name="Rectangle 208" width="1.931" height="1.934" transform="translate(157.718 90.185) rotate(-83.886)" fill="#29b0ba"/>
    <rect id="Rectangle_209" data-name="Rectangle 209" width="1.931" height="1.934" transform="translate(161.086 87.588) rotate(-83.886)" fill="#75b12f"/>
    <rect id="Rectangle_210" data-name="Rectangle 210" width="1.356" height="1.36" transform="translate(160.619 89.973) rotate(-83.892)" fill="#213466"/>
    <rect id="Rectangle_211" data-name="Rectangle 211" width="1.356" height="1.36" transform="translate(164.002 88.293) rotate(-83.927)" fill="#fcfcfc"/>
    <path id="Path_284" data-name="Path 284" d="M247.873,161.839a6.353,6.353,0,0,0-1.227-.53,7.3,7.3,0,0,0-3.376-.248,8.172,8.172,0,0,0-1.46.378c-.048.019-.1.033-.145.052a7.864,7.864,0,0,0-.774.345c-.222.111-.441.233-.66.367a15.059,15.059,0,0,0-1.471,1.012,31.5,31.5,0,0,1-.152-7.852c0-.007.011-.011.019-.007,1.167.734.841,2.783.593,3.372,0,.011.011.019.022.011a3.615,3.615,0,0,0,.445-4.091c-.007-.011.007-.022.019-.015a3.257,3.257,0,0,1,.526.537,3.192,3.192,0,0,1,.66,1.742,5.539,5.539,0,0,1,0,.786c0,.063-.007.119-.015.174,0,.007.007.011.015.007s.007,0,.007,0a3.352,3.352,0,0,0-.007-3.065,3.792,3.792,0,0,0-.66-.9c-.082-.085-.17-.167-.263-.252a.011.011,0,0,1,.011-.019c.089.022.17.048.252.074a2.379,2.379,0,0,1,.66.348,2.737,2.737,0,0,1,.919,1.238,3.2,3.2,0,0,1,.215,1.134.011.011,0,0,0,.022,0,2.816,2.816,0,0,0-.237-2.316,2.721,2.721,0,0,0-.919-.889,2.938,2.938,0,0,0-.66-.293,1.763,1.763,0,0,0-.315-.07c-.015,0-.011-.022,0-.022.107-.011.211-.015.311-.019a3.582,3.582,0,0,1,.66.052,2.4,2.4,0,0,1,.919.363,1.911,1.911,0,0,1,.619.66c0,.011.022,0,.022-.007a1.85,1.85,0,0,0-.637-1.241,2.416,2.416,0,0,0-.919-.485,2.7,2.7,0,0,0-.66-.1,2.035,2.035,0,0,0-.823.148c-.011,0-.019-.007-.015-.019a1.573,1.573,0,0,1,.837-.593,1.86,1.86,0,0,1,.66-.078,1.489,1.489,0,0,1,.541.126c.011,0,.019-.007.011-.018a2.145,2.145,0,0,0-.552-.448,1.747,1.747,0,0,0-.66-.215,1.658,1.658,0,0,0-1.59.789.01.01,0,0,1-.019,0,4.2,4.2,0,0,1-.219-.448,5.363,5.363,0,0,1-.359-1.2c0-.015-.019-.015-.019,0a5.4,5.4,0,0,1-.363,1.2,4.443,4.443,0,0,1-.219.441.011.011,0,0,1-.019,0,1.7,1.7,0,0,0-2.8-.122.011.011,0,0,0,.011.019,1.734,1.734,0,0,1,2.038.545.012.012,0,0,1-.015.019,2.424,2.424,0,0,0-2.616.648,1.842,1.842,0,0,0-.426,1.026.012.012,0,0,0,.022.007,1.841,1.841,0,0,1,.4-.5,2.669,2.669,0,0,1,2.1-.563c.015,0,.015.022,0,.022a2.782,2.782,0,0,0-2.108,1.686,3.024,3.024,0,0,0-.026,1.882.011.011,0,0,0,.022,0,.246.246,0,0,1,0-.052,2.79,2.79,0,0,1,2.046-2.742.011.011,0,0,1,.011.019,3.411,3.411,0,0,0-.93,4.217c.007.011.022.007.022,0a3.464,3.464,0,0,1,1.171-3.239c.011-.007.026,0,.019.015a3.615,3.615,0,0,0,.445,4.091.013.013,0,0,0,.022-.011c-.245-.585-.571-2.638.593-3.372.007,0,.019,0,.019.007a31.5,31.5,0,0,1-.152,7.852,11.9,11.9,0,0,0-2.905-1.719c-.122-.044-.241-.085-.356-.126a7.606,7.606,0,0,0-2.746-.389,7.12,7.12,0,0,0-2.835.715c-.111.056-.2.107-.274.148a.027.027,0,0,0,.022.048c.085-.026.167-.052.252-.074a7.834,7.834,0,0,1,2.835-.278,8.463,8.463,0,0,1,2.746.737,14.585,14.585,0,0,1,3.268,2.127,35.676,35.676,0,0,1-3.268,2.794c-.037.019-.07.041-.1.059a.766.766,0,0,0-1.364.271.745.745,0,0,0,.148.66,1.1,1.1,0,0,0,1.319.193,18.186,18.186,0,0,0,3.617-3.013c.122-.111.245-.226.371-.337.126.111.248.222.371.334.663.608,1.271,1.2,1.827,1.7.23.208.448.4.66.571a5.846,5.846,0,0,0,.919.637,1.188,1.188,0,0,0,1.46-.033c.022-.019.044-.037.067-.059a.845.845,0,0,0,.148-.66.741.741,0,0,0-.219-.374.761.761,0,0,0-1.145.1,2.9,2.9,0,0,1-.315-.193,11.064,11.064,0,0,1-.919-.741c-.208-.182-.426-.382-.66-.593-.452-.411-.949-.863-1.475-1.327.467-.389.96-.767,1.475-1.115.215-.145.434-.285.66-.419.3-.178.6-.341.919-.493a9.269,9.269,0,0,1,1.46-.56,7.685,7.685,0,0,1,3.376-.207,8.934,8.934,0,0,1,1.2.282c.03.019.052-.022.022-.041" transform="translate(-69.265 -60.672)" fill="#757a81"/>
    <g id="Group_62" data-name="Group 62" transform="translate(118.14 125.81)">
      <rect id="Rectangle_212" data-name="Rectangle 212" width="0.912" height="0.912" transform="translate(7.189 9.008)" fill="#fcfcfc"/>
      <path id="Path_285" data-name="Path 285" d="M279.856,259.528V253.51h-.889v5.129h-3.354V253.51h-.889v5.129h-3.531V253.51h-1.4a4.727,4.727,0,0,0-1.512.226,3.535,3.535,0,0,0-1.156.63,2.814,2.814,0,0,0-.737.96,2.769,2.769,0,0,0-.259,1.2,2.847,2.847,0,0,0,.3,1.353,2.7,2.7,0,0,0,.8.93,3.382,3.382,0,0,0,1.167.541,5.414,5.414,0,0,0,1.4.178l10.057,0Zm-11.365-1.03a2.321,2.321,0,0,1-.767-.415,1.967,1.967,0,0,1-.515-.663,2.039,2.039,0,0,1-.189-.893,1.853,1.853,0,0,1,.208-.871,2.186,2.186,0,0,1,.545-.674,2.425,2.425,0,0,1,.771-.434,2.7,2.7,0,0,1,.889-.148h.878v4.243h-.878A3,3,0,0,1,268.491,258.5Z" transform="translate(-211.291 -251.572)" fill="#fcfcfc"/>
      <rect id="Rectangle_213" data-name="Rectangle 213" width="0.889" height="7.952" transform="translate(49.566 0.004)" fill="#fcfcfc"/>
      <rect id="Rectangle_214" data-name="Rectangle 214" width="0.912" height="0.912" transform="translate(58.989 0.004)" fill="#fcfcfc"/>
      <rect id="Rectangle_215" data-name="Rectangle 215" width="0.912" height="0.912" transform="translate(67.664 8.997)" fill="#fcfcfc"/>
      <rect id="Rectangle_216" data-name="Rectangle 216" width="0.912" height="0.912" transform="translate(8.745 9.008)" fill="#fcfcfc"/>
      <path id="Path_286" data-name="Path 286" d="M193.417,255.35h-1.453a2.774,2.774,0,0,1-1.223-.222,1.655,1.655,0,0,1-.7-.663,3.829,3.829,0,0,0,.078-.83v-2.861h-.889v3a1.772,1.772,0,0,1-.411,1.227,1.582,1.582,0,0,1-1.245.46,1.991,1.991,0,0,1-.711-.122,1.736,1.736,0,0,1-.556-.333,1.545,1.545,0,0,1-.367-.493,1.523,1.523,0,0,1-.145-.6v-3.135h-.889v3.068a1.744,1.744,0,0,1-.122.693,1.276,1.276,0,0,1-.334.467,1.323,1.323,0,0,1-.478.267,1.889,1.889,0,0,1-.567.082h-1.719v-4.576H180.8v4.576h-4.654l1.553-3.713a7.863,7.863,0,0,0-.756-.582,6.584,6.584,0,0,0-.823-.478,4.81,4.81,0,0,0-.856-.322,3.278,3.278,0,0,0-.856-.115,3.485,3.485,0,0,0-.867.115,5.234,5.234,0,0,0-.86.315,5.4,5.4,0,0,0-.823.478,7.752,7.752,0,0,0-.737.585l1.564,3.713h-3.076v-5.129h-1.419a4.587,4.587,0,0,0-1.5.233,3.606,3.606,0,0,0-1.16.637,2.86,2.86,0,0,0-.749.963,2.791,2.791,0,0,0-.267,1.215,2.839,2.839,0,0,0,.293,1.345,2.56,2.56,0,0,0,.8.919,3.418,3.418,0,0,0,1.171.53,5.626,5.626,0,0,0,1.412.17h.534v.256a1.163,1.163,0,0,1-.4,1,1.839,1.839,0,0,1-1.123.3,3.194,3.194,0,0,1-.737-.078,4.313,4.313,0,0,1-.749-.267l-.278.852a8.031,8.031,0,0,0,.9.282,3.39,3.39,0,0,0,.793.1,2.505,2.505,0,0,0,1.886-.615,2.3,2.3,0,0,0,.589-1.656v-.167h13.8a2.342,2.342,0,0,0,1.149-.278,2.309,2.309,0,0,0,.815-.741,2.227,2.227,0,0,0,.878.83,2.746,2.746,0,0,0,1.323.3,3.036,3.036,0,0,0,1.36-.278,1.9,1.9,0,0,0,.86-.852,2.412,2.412,0,0,0,.27.371,1.573,1.573,0,0,0,.415.326,2.478,2.478,0,0,0,.615.233,3.44,3.44,0,0,0,.637.078v.011h2.564V248.28H193.4v7.07h.015Zm-24.694,0h-.9a3.084,3.084,0,0,1-.938-.137,2.353,2.353,0,0,1-.771-.4,1.9,1.9,0,0,1-.522-.652,2.005,2.005,0,0,1-.189-.886,1.876,1.876,0,0,1,.2-.874,2.173,2.173,0,0,1,.545-.682,2.508,2.508,0,0,1,.771-.437,2.645,2.645,0,0,1,.9-.156h.9Zm4.9,0-1.386-3.4a3.436,3.436,0,0,1,1.049-.63,3.207,3.207,0,0,1,1.126-.2,3.138,3.138,0,0,1,1.19.237,3.557,3.557,0,0,1,1,.593l-1.386,3.4Z" transform="translate(-147.327 -248.28)" fill="#fcfcfc"/>
      <rect id="Rectangle_217" data-name="Rectangle 217" width="0.912" height="0.912" transform="translate(4.15 0.004)" fill="#fcfcfc"/>
      <rect id="Rectangle_218" data-name="Rectangle 218" width="0.912" height="0.912" transform="translate(93.985 0.004)" fill="#fcfcfc"/>
      <rect id="Rectangle_219" data-name="Rectangle 219" width="0.889" height="7.952" transform="translate(86.118 0.004)" fill="#fcfcfc"/>
      <rect id="Rectangle_220" data-name="Rectangle 220" width="0.912" height="0.912" transform="translate(57.433 0.004)" fill="#fcfcfc"/>
      <path id="Path_287" data-name="Path 287" d="M152.141,256.054a3.194,3.194,0,0,0-.141-.975,2.018,2.018,0,0,0-.426-.774,2.37,2.37,0,0,0-.793-.582,2.635,2.635,0,0,0-1.071-.193h-.656v.886h.778a1.445,1.445,0,0,1,.611.137,1.426,1.426,0,0,1,.478.359,1.338,1.338,0,0,1,.259.511,2.663,2.663,0,0,1,.074.663v2.572H147.09v.886h5.051v-3.491Z" transform="translate(-136.362 -251.585)" fill="#fcfcfc"/>
      <rect id="Rectangle_221" data-name="Rectangle 221" width="0.889" height="7.952" transform="translate(133.105 0.004)" fill="#fcfcfc"/>
      <rect id="Rectangle_222" data-name="Rectangle 222" width="0.912" height="0.912" transform="translate(95.541 0.004)" fill="#fcfcfc"/>
      <path id="Path_288" data-name="Path 288" d="M403.9,248.29h-.889v7.067h-3.053a3.115,3.115,0,0,0,.278-1.308,3.317,3.317,0,0,0-.248-1.278,3.112,3.112,0,0,0-.682-1.023,3.168,3.168,0,0,0-1.026-.682,3.268,3.268,0,0,0-1.282-.248,3.043,3.043,0,0,0-1.245.256,3.18,3.18,0,0,0-1,.693,3.218,3.218,0,0,0-.671,1.026,3.253,3.253,0,0,0-.245,1.264,3.153,3.153,0,0,0,.074.682,3.838,3.838,0,0,0,.193.626h-2.753a3.115,3.115,0,0,0,.278-1.308,3.316,3.316,0,0,0-.248-1.278,3.112,3.112,0,0,0-.682-1.023,3.167,3.167,0,0,0-1.026-.682,3.269,3.269,0,0,0-1.282-.248,3.026,3.026,0,0,0-1.241.256,3.181,3.181,0,0,0-1,.693,3.22,3.22,0,0,0-.671,1.026,3.255,3.255,0,0,0-.245,1.264,3.15,3.15,0,0,0,.074.682,3.838,3.838,0,0,0,.193.626h-2.82V248.3h-.889v7.067h-2.831v-1.356a3.472,3.472,0,0,0-.133-.971,1.97,1.97,0,0,0-.422-.782,2.224,2.224,0,0,0-.778-.578,2.768,2.768,0,0,0-1.1-.189h-3.932l1.671-3.194h-.967l-1.7,3.183a1.815,1.815,0,0,0,.141.5,1.574,1.574,0,0,0,.259.4h4.528a1.8,1.8,0,0,1,.726.13,1.277,1.277,0,0,1,.493.348,1.191,1.191,0,0,1,.256.511,2.86,2.86,0,0,1,.067.641v1.356h-8.215v-5.129h-1.4a4.688,4.688,0,0,0-1.508.226,3.536,3.536,0,0,0-1.156.63,2.814,2.814,0,0,0-.737.96,2.769,2.769,0,0,0-.259,1.2,2.847,2.847,0,0,0,.3,1.353,2.7,2.7,0,0,0,.8.93,3.383,3.383,0,0,0,1.167.541,5.4,5.4,0,0,0,1.4.178h17.62a3.2,3.2,0,0,0,1.026.737,3.064,3.064,0,0,0,1.293.271,3.3,3.3,0,0,0,1.327-.267,3.162,3.162,0,0,0,1.06-.741h3.909a3.2,3.2,0,0,0,1.026.737,3.063,3.063,0,0,0,1.293.271,3.3,3.3,0,0,0,1.327-.267,3.163,3.163,0,0,0,1.06-.741H403.9V248.29Zm-34.951,7.067h-.878a2.974,2.974,0,0,1-.937-.145,2.32,2.32,0,0,1-.767-.415,1.967,1.967,0,0,1-.515-.663,2.039,2.039,0,0,1-.189-.893,1.851,1.851,0,0,1,.2-.871,2.187,2.187,0,0,1,.545-.674,2.426,2.426,0,0,1,.771-.434,2.7,2.7,0,0,1,.889-.148h.878v4.243Zm21.6-.393a2.279,2.279,0,0,1-.5.737,2.243,2.243,0,0,1-.745.482,2.452,2.452,0,0,1-.926.17,2.226,2.226,0,0,1-1.627-.682,2.3,2.3,0,0,1-.478-.737,2.354,2.354,0,0,1-.17-.9,2.465,2.465,0,0,1,.17-.9,2.329,2.329,0,0,1,.474-.741,2.25,2.25,0,0,1,.715-.5,2.187,2.187,0,0,1,.915-.189,2.414,2.414,0,0,1,.937.178,2.323,2.323,0,0,1,.745.489,2.2,2.2,0,0,1,.493.737,2.414,2.414,0,0,1,.178.937A2.254,2.254,0,0,1,390.552,254.964Zm8.615,0a2.279,2.279,0,0,1-.5.737,2.244,2.244,0,0,1-.745.482,2.452,2.452,0,0,1-.926.17,2.277,2.277,0,0,1-.9-.182,2.254,2.254,0,0,1-.723-.5,2.3,2.3,0,0,1-.478-.737,2.357,2.357,0,0,1-.174-.9,2.394,2.394,0,0,1,.174-.9,2.321,2.321,0,0,1,.471-.741,2.249,2.249,0,0,1,.715-.5,2.187,2.187,0,0,1,.915-.189,2.414,2.414,0,0,1,.937.178,2.323,2.323,0,0,1,.745.489,2.2,2.2,0,0,1,.493.737,2.415,2.415,0,0,1,.178.937A2.193,2.193,0,0,1,399.168,254.964Z" transform="translate(-273.385 -248.286)" fill="#fcfcfc"/>
      <path id="Path_289" data-name="Path 289" d="M120.408,259.35a5.407,5.407,0,0,0,1.4.178h5.818V253.51h-.889v5.129H123.2V253.51h-1.4a4.7,4.7,0,0,0-1.508.226,3.535,3.535,0,0,0-1.156.63,2.814,2.814,0,0,0-.737.96,2.769,2.769,0,0,0-.259,1.2,2.847,2.847,0,0,0,.3,1.353,2.7,2.7,0,0,0,.8.93A3.323,3.323,0,0,0,120.408,259.35Zm-1.378-2.824a1.853,1.853,0,0,1,.208-.871,2.187,2.187,0,0,1,.545-.674,2.426,2.426,0,0,1,.771-.434,2.7,2.7,0,0,1,.889-.148h.878v4.243h-.878a2.976,2.976,0,0,1-.938-.145,2.321,2.321,0,0,1-.767-.415,1.967,1.967,0,0,1-.515-.663A1.989,1.989,0,0,1,119.029,256.526Z" transform="translate(-118.14 -251.572)" fill="#fcfcfc"/>
      <rect id="Rectangle_223" data-name="Rectangle 223" width="0.912" height="0.912" transform="translate(64.418 9.008)" fill="#fcfcfc"/>
      <rect id="Rectangle_224" data-name="Rectangle 224" width="0.912" height="0.912" transform="translate(62.862 9.008)" fill="#fcfcfc"/>
      <path id="Path_290" data-name="Path 290" d="M308.516,257.369a4.78,4.78,0,0,0,.085-.938v-.189h11.424V248.29h-.889v7.067H315.36l1.553-3.713a7.85,7.85,0,0,0-.756-.582,6.583,6.583,0,0,0-.823-.478,4.81,4.81,0,0,0-.856-.322,3.279,3.279,0,0,0-.856-.115,3.483,3.483,0,0,0-.867.115,5.229,5.229,0,0,0-.86.315,5.4,5.4,0,0,0-.823.478,7.754,7.754,0,0,0-.737.585l1.564,3.713H308.59v-5.129H307.7v6.207a4.438,4.438,0,0,1-.037.637,1.182,1.182,0,0,1-.133.422.555.555,0,0,1-.256.233,1.015,1.015,0,0,1-.415.074,1.353,1.353,0,0,1-.456-.067l-.233.852a2.739,2.739,0,0,0,.723.1,1.863,1.863,0,0,0,.8-.156,1.289,1.289,0,0,0,.526-.448A1.76,1.76,0,0,0,308.516,257.369Zm2.939-5.414a3.436,3.436,0,0,1,1.049-.63,3.207,3.207,0,0,1,1.127-.2,3.138,3.138,0,0,1,1.189.237,3.557,3.557,0,0,1,1,.593l-1.386,3.4h-1.586Z" transform="translate(-236.494 -248.286)" fill="#fcfcfc"/>
      <rect id="Rectangle_225" data-name="Rectangle 225" width="0.912" height="0.912" transform="translate(2.594 0.004)" fill="#fcfcfc"/>
      <path id="Path_291" data-name="Path 291" d="M125.993,285.47h-1.367l-3.02,3.187V285.47H120.49V291.8h1.115v-1.834l.989-1.015,2.164,2.85h1.353l-2.757-3.609Z" transform="translate(-119.619 -271.689)" fill="#fcfcfc"/>
      <rect id="Rectangle_226" data-name="Rectangle 226" width="1.115" height="6.333" transform="translate(7.508 13.781)" fill="#fcfcfc"/>
      <path id="Path_292" data-name="Path 292" d="M150.472,289.85l-3.4-4.38H146.04V291.8h1.1V287.3l3.5,4.506h.934V285.47h-1.1Z" transform="translate(-135.701 -271.689)" fill="#fcfcfc"/>
      <path id="Path_293" data-name="Path 293" d="M167.925,289.052h1.623v1.186a2.594,2.594,0,0,1-1.53.478,2.116,2.116,0,0,1-2.157-2.26v-.018a2.142,2.142,0,0,1,2.057-2.234,2.486,2.486,0,0,1,1.775.678l.708-.841a3.431,3.431,0,0,0-2.438-.86,3.229,3.229,0,0,0-3.272,3.276v.018a3.145,3.145,0,0,0,3.291,3.257,4.044,4.044,0,0,0,2.646-.986v-2.661h-2.7Z" transform="translate(-147.44 -271.506)" fill="#fcfcfc"/>
      <path id="Path_294" data-name="Path 294" d="M187.224,285.47H184.86V291.8h2.364a3.173,3.173,0,0,0,3.372-3.168v-.019A3.161,3.161,0,0,0,187.224,285.47Zm2.2,3.187a2.067,2.067,0,0,1-2.2,2.134h-1.249v-4.306h1.249a2.079,2.079,0,0,1,2.2,2.153Z" transform="translate(-160.136 -271.689)" fill="#fcfcfc"/>
      <path id="Path_295" data-name="Path 295" d="M206.494,285.18a3.246,3.246,0,0,0-3.324,3.276v.018a3.319,3.319,0,0,0,6.637-.018v-.019A3.228,3.228,0,0,0,206.494,285.18Zm2.138,3.294a2.141,2.141,0,0,1-2.138,2.235,2.172,2.172,0,0,1-2.157-2.253v-.018a2.141,2.141,0,0,1,2.138-2.234,2.171,2.171,0,0,1,2.157,2.253Z" transform="translate(-171.661 -271.506)" fill="#fcfcfc"/>
      <path id="Path_296" data-name="Path 296" d="M227.916,288.464l-1.931-2.994H224.8V291.8h1.1v-4.521l1.986,2.965h.033l2-2.983V291.8h1.115V285.47h-1.19Z" transform="translate(-185.276 -271.689)" fill="#fcfcfc"/>
      <path id="Path_297" data-name="Path 297" d="M255.944,285.18a3.246,3.246,0,0,0-3.324,3.276v.018a3.319,3.319,0,0,0,6.637-.018v-.019A3.224,3.224,0,0,0,255.944,285.18Zm2.138,3.294a2.141,2.141,0,0,1-2.138,2.235,2.172,2.172,0,0,1-2.157-2.253v-.018a2.141,2.141,0,0,1,2.138-2.234,2.172,2.172,0,0,1,2.157,2.253Z" transform="translate(-202.787 -271.506)" fill="#fcfcfc"/>
      <path id="Path_298" data-name="Path 298" d="M274.26,291.8h1.115v-2.579h3.2v-1.012h-3.2v-1.727h3.605V285.47H274.26Z" transform="translate(-216.408 -271.689)" fill="#fcfcfc"/>
      <path id="Path_299" data-name="Path 299" d="M299.366,287.98c-1.215-.289-1.5-.508-1.5-.993v-.018c0-.415.382-.752,1.034-.752a2.878,2.878,0,0,1,1.723.652l.6-.841a3.527,3.527,0,0,0-2.3-.8,1.941,1.941,0,0,0-2.168,1.834v.019c0,1.167.763,1.564,2.112,1.89,1.178.271,1.43.515,1.43.967v.022c0,.482-.434.8-1.123.8a2.938,2.938,0,0,1-2-.823l-.671.8a3.912,3.912,0,0,0,2.646,1.012c1.334,0,2.264-.7,2.264-1.89v-.018C301.4,288.784,300.707,288.306,299.366,287.98Z" transform="translate(-230.401 -271.538)" fill="#fcfcfc"/>
      <path id="Path_300" data-name="Path 300" d="M314.23,285.35l-2.79,6.377h1.141l.652-1.53h3l.645,1.53h1.178l-2.79-6.377Zm-.589,3.865,1.089-2.535,1.1,2.535Z" transform="translate(-239.811 -271.613)" fill="#fcfcfc"/>
      <path id="Path_301" data-name="Path 301" d="M335.367,289.116c0,1.167-.608,1.764-1.6,1.764s-1.6-.634-1.6-1.808v-3.6H331.05v3.646a2.5,2.5,0,0,0,2.7,2.787,2.529,2.529,0,0,0,2.727-2.838v-3.591h-1.115v3.643Z" transform="translate(-252.154 -271.689)" fill="#fcfcfc"/>
      <path id="Path_302" data-name="Path 302" d="M352.484,285.47H350.12V291.8h2.364a3.173,3.173,0,0,0,3.372-3.168v-.019A3.161,3.161,0,0,0,352.484,285.47Zm2.2,3.187a2.067,2.067,0,0,1-2.2,2.134h-1.249v-4.306h1.249a2.079,2.079,0,0,1,2.2,2.153Z" transform="translate(-264.158 -271.689)" fill="#fcfcfc"/>
      <rect id="Rectangle_227" data-name="Rectangle 227" width="1.115" height="6.333" transform="translate(93.11 13.781)" fill="#fcfcfc"/>
      <path id="Path_303" data-name="Path 303" d="M385.65,285.35l-2.79,6.377H384l.652-1.53h3l.645,1.53h1.178l-2.79-6.377Zm-.589,3.865,1.09-2.535,1.1,2.535Z" transform="translate(-284.766 -271.613)" fill="#fcfcfc"/>
      <path id="Path_304" data-name="Path 304" d="M408.744,287.49v-.018a1.909,1.909,0,0,0-.526-1.367,2.567,2.567,0,0,0-1.831-.634H403.56V291.8h1.115v-2.209h1.4l1.56,2.209h1.315l-1.712-2.4A1.9,1.9,0,0,0,408.744,287.49Zm-4.069,1.119v-2.127H406.3c.826,0,1.315.371,1.315,1.049v.018c0,.641-.508,1.06-1.3,1.06Z" transform="translate(-297.795 -271.689)" fill="#fcfcfc"/>
      <path id="Path_305" data-name="Path 305" d="M423.09,285.35l-2.79,6.377h1.141l.652-1.53h3l.645,1.53h1.178l-2.79-6.377Zm-.589,3.865,1.089-2.535,1.1,2.535Z" transform="translate(-308.332 -271.613)" fill="#fcfcfc"/>
      <path id="Path_306" data-name="Path 306" d="M445.014,288.519a1.512,1.512,0,0,0,.908-1.412v-.018a1.413,1.413,0,0,0-.426-1.049,2.29,2.29,0,0,0-1.66-.56H440.99v6.333h2.935c1.416,0,2.346-.6,2.346-1.738v-.019A1.544,1.544,0,0,0,445.014,288.519Zm-2.927-2.057h1.6c.715,0,1.115.308,1.115.8v.018c0,.578-.482.86-1.2.86h-1.523Zm3.072,3.494c0,.571-.463.867-1.223.867h-1.849v-1.738h1.768c.878,0,1.3.319,1.3.852Z" transform="translate(-321.355 -271.695)" fill="#fcfcfc"/>
      <rect id="Rectangle_228" data-name="Rectangle 228" width="1.115" height="6.333" transform="translate(126.301 13.781)" fill="#fcfcfc"/>
      <path id="Path_307" data-name="Path 307" d="M468.684,285.35H467.65l-2.79,6.377H466l.652-1.53h3l.645,1.53h1.178Zm-1.623,3.865,1.089-2.535,1.1,2.535Z" transform="translate(-336.38 -271.613)" fill="#fcfcfc"/>
    </g>
  </g>
</svg>
